<?xml version="1.0" encoding="utf-8"?>
<svg xmlns="http://www.w3.org/2000/svg" xmlns:xlink="http://www.w3.org/1999/xlink">
    <symbol viewBox="0 0 40 40" id="telegram" xmlns="http://www.w3.org/2000/svg">
        <g clip-path="url(#clip0)">
            <path d="M34.5363 7.98004C34.1699 7.53189 33.621 7.28516 32.9907 7.28516C32.648 7.28516 32.285 7.35725 31.9119 7.49985L6.5175 17.1937C5.16985 17.708 4.98834 18.4798 5.00002 18.894C5.01169 19.3083 5.23668 20.0687 6.61134 20.5061C6.61958 20.5086 6.62782 20.5111 6.63606 20.5134L11.9036 22.0208L14.7522 30.1667C15.1406 31.2772 16.0124 31.9671 17.0278 31.9671C17.6679 31.9671 18.2976 31.6988 18.8487 31.1916L22.1069 28.1917L26.8326 31.9968C26.8331 31.9973 26.8337 31.9975 26.8342 31.998L26.8791 32.0341C26.8832 32.0374 26.8875 32.0408 26.8916 32.044C27.4169 32.4514 27.9903 32.6665 28.5504 32.6668H28.5506C29.6449 32.6668 30.5162 31.8568 30.7701 30.6034L34.9309 10.0581C35.098 9.2334 34.9579 8.49548 34.5363 7.98004ZM13.6657 21.7345L23.8283 16.5427L17.5004 23.2666C17.3967 23.3767 17.3232 23.5115 17.2871 23.6582L16.0669 28.6007L13.6657 21.7345ZM17.6579 29.8985C17.6158 29.9371 17.5734 29.9717 17.5311 30.0035L18.6631 25.4185L20.7224 27.0768L17.6579 29.8985ZM33.2081 9.70901L29.0473 30.2546C29.0072 30.4512 28.8793 30.9087 28.5504 30.9087C28.3878 30.9087 28.1837 30.8202 27.9747 30.6593L22.6198 26.3476C22.6191 26.3469 22.6182 26.3462 22.6173 26.3457L19.431 23.78L28.5819 14.0564C28.8749 13.7451 28.9015 13.2684 28.6449 12.9264C28.3881 12.5845 27.9228 12.4769 27.5421 12.6714L12.4913 20.3605L7.15219 18.8329L32.5388 9.14207C32.7533 9.06013 32.903 9.04297 32.9907 9.04297C33.0444 9.04297 33.1401 9.04938 33.1756 9.09309C33.2223 9.15009 33.2818 9.34441 33.2081 9.70901Z" fill="#C4C4C4"/>
        </g>
        <rect x="1" y="1" width="38" height="38" stroke="#C4C4C4" stroke-width="2"/>
        <clipPath id="clip0">
            <rect x="5" y="5" width="30" height="30" fill="white"/>
        </clipPath>
    </symbol>
    <symbol viewBox="0 0 40 40" id="vk" xmlns="http://www.w3.org/2000/svg">
        <rect x="1" y="1" width="38" height="38" stroke="#C4C4C4" stroke-width="2"/>
        <g clip-path="url(#clip0)">
            <path d="M20.1813 29.375C24.5212 29.375 22.9738 26.6275 23.3088 25.8375C23.3038 25.2475 23.2987 24.68 23.3188 24.335C23.5938 24.4125 24.2425 24.7412 25.5825 26.0437C27.6512 28.1312 28.18 29.375 29.8512 29.375H32.9275C33.9025 29.375 34.41 28.9713 34.6638 28.6325C34.9088 28.305 35.1488 27.73 34.8862 26.835C34.2 24.68 30.1975 20.9587 29.9487 20.5662C29.9862 20.4937 30.0462 20.3975 30.0775 20.3475H30.075C30.865 19.3038 33.88 14.7862 34.3237 12.9787C34.325 12.9762 34.3263 12.9725 34.3263 12.9688C34.5662 12.1437 34.3463 11.6088 34.1187 11.3063C33.7763 10.8538 33.2313 10.625 32.495 10.625H29.4188C28.3888 10.625 27.6075 11.1437 27.2125 12.09C26.5513 13.7713 24.6938 17.2288 23.3013 18.4525C23.2587 16.7188 23.2875 15.395 23.31 14.4112C23.355 12.4925 23.5 10.625 21.5087 10.625H16.6737C15.4262 10.625 14.2325 11.9875 15.525 13.605C16.655 15.0225 15.9312 15.8125 16.175 19.745C15.225 18.7262 13.535 15.975 12.34 12.4588C12.005 11.5075 11.4975 10.6262 10.0687 10.6262H6.9925C5.745 10.6262 5 11.3062 5 12.445C5 15.0025 10.6613 29.375 20.1813 29.375ZM10.0687 12.5012C10.34 12.5012 10.3675 12.5013 10.5687 13.0725C11.7925 16.6762 14.5375 22.0088 16.5425 22.0088C18.0487 22.0088 18.0487 20.465 18.0487 19.8837L18.0475 15.2562C17.965 13.725 17.4075 12.9625 17.0413 12.5L21.4263 12.505C21.4287 12.5263 21.4013 17.6237 21.4387 18.8587C21.4387 20.6125 22.8312 21.6175 25.005 19.4175C27.2987 16.8288 28.885 12.9588 28.9487 12.8013C29.0425 12.5763 29.1238 12.5 29.4188 12.5H32.495H32.5075C32.5063 12.5037 32.5063 12.5075 32.505 12.5112C32.2237 13.8237 29.4475 18.0063 28.5188 19.305C28.5037 19.325 28.49 19.3463 28.4762 19.3675C28.0675 20.035 27.735 20.7725 28.5325 21.81H28.5337C28.6062 21.8975 28.795 22.1025 29.07 22.3875C29.925 23.27 32.8575 26.2875 33.1175 27.4875C32.945 27.515 32.7575 27.495 29.8512 27.5012C29.2325 27.5012 28.7487 26.5763 26.9025 24.7137C25.2425 23.0988 24.165 22.4388 23.1838 22.4388C21.2787 22.4388 21.4175 23.985 21.435 25.855C21.4412 27.8825 21.4288 27.2413 21.4425 27.3688C21.3313 27.4125 21.0125 27.5 20.1813 27.5C12.25 27.5 7.085 14.9113 6.88625 12.505C6.955 12.4988 7.90125 12.5025 10.0687 12.5012Z" fill="#C4C4C4"/>
        </g>
        <defs>
            <clipPath id="clip0">
                <rect x="5" y="5" width="30" height="30" fill="white"/>
            </clipPath>
        </defs>
    </symbol>
    <symbol viewBox="0 0 40 40" id="viber" xmlns="http://www.w3.org/2000/svg">
        <rect x="1" y="1" width="38" height="38" stroke="#C4C4C4" stroke-width="2"/>
        <path d="M33.7393 15.5883C33.7395 12.7708 32.6352 10.1148 30.63 8.10959C28.6247 6.10435 25.9688 5 23.151 5H16.8774C16.8771 5 16.8771 5 16.8771 5C14.0598 5 11.4037 6.10435 9.39865 8.10936C7.39342 10.1148 6.28906 12.7708 6.28906 15.5883V20.5198C6.28906 22.702 6.95465 24.8008 8.21396 26.59C9.32495 28.1683 10.8191 29.4013 12.5611 30.183V33.0156C12.5611 34.4802 13.3812 35 14.0834 35C14.5851 35 15.0868 34.7523 15.5753 34.2641L18.7311 31.1083L23.1512 31.1081C25.9688 31.1081 28.6247 30.0037 30.63 27.9987C32.6352 25.9935 33.7395 23.3373 33.7395 20.5198L33.7393 15.5883ZM23.1512 29.3503L18.3672 29.3505C18.1339 29.3505 17.9105 29.443 17.7457 29.6078L14.3324 33.0211C14.3281 33.0257 14.3235 33.03 14.3189 33.0344C14.3189 33.0282 14.3189 33.0218 14.3189 33.0156V29.5963C14.3189 29.2317 14.0939 28.9051 13.7534 28.7751C10.3403 27.4728 8.0471 24.1551 8.0471 20.5198V15.5883C8.0471 13.2402 8.96858 11.0255 10.6417 9.35219C12.3148 7.67929 14.5293 6.75781 16.8774 6.75781H23.151C25.4991 6.75781 27.7138 7.67929 29.3869 9.35242C31.0603 11.0258 31.9817 13.2404 31.9815 15.5883L31.9817 20.5198C31.9815 25.389 28.0202 29.3503 23.1512 29.3503Z" fill="#C4C4C4"/>
        <path d="M22.3514 19.375C22.0083 19.0317 21.4519 19.0317 21.1086 19.375L20.3986 20.0848L17.6475 17.3339L18.3574 16.6241C18.5222 16.4593 18.6149 16.2357 18.6149 16.0025C18.6149 15.7695 18.5222 15.5459 18.3574 15.3811L15.029 12.0527C14.8642 11.8879 14.6409 11.7952 14.4076 11.7952C14.1746 11.7952 13.951 11.8879 13.7862 12.0527L11.4562 14.3827C10.1962 15.6427 10.1962 17.6932 11.4564 18.9539L18.7786 26.2765C19.3874 26.8851 20.1993 27.2202 21.0642 27.2202C21.9294 27.2202 22.7412 26.8851 23.35 26.2765L25.6801 23.9467C25.8449 23.7817 25.9376 23.5583 25.9376 23.3251C25.9376 23.0921 25.8449 22.8685 25.6801 22.7037L22.3514 19.375ZM22.107 25.0332C21.8303 25.31 21.4599 25.4624 21.0642 25.4624C20.6685 25.4624 20.2981 25.31 20.0214 25.0332L12.6995 17.7108C12.1245 17.1359 12.1243 16.2002 12.6993 15.6255L14.4076 13.9169L16.493 16.0025L15.783 16.7122C15.6182 16.877 15.5255 17.1006 15.5255 17.3336C15.5255 17.5669 15.6182 17.7903 15.783 17.9553L19.777 21.9493C20.1203 22.2924 20.6767 22.2926 21.02 21.9493L21.73 21.2395L23.8154 23.3249L22.107 25.0332Z" fill="#C4C4C4"/>
        <path d="M20.2275 8.88794C19.7421 8.88794 19.3486 9.28139 19.3486 9.76685C19.3486 10.2521 19.7421 10.6458 20.2275 10.6458C22.239 10.6458 24.1302 11.429 25.5525 12.8515C26.975 14.2738 27.7582 16.1648 27.7582 18.1764C27.7582 18.6617 28.1517 19.0553 28.6371 19.0553C29.1223 19.0553 29.516 18.6619 29.516 18.1764C29.516 15.6953 28.5499 13.3628 26.7955 11.6084C25.0412 9.85405 22.7086 8.88794 20.2275 8.88794Z" fill="#C4C4C4"/>
        <path d="M23.9926 18.1763C23.9926 18.6615 24.3863 19.0552 24.8716 19.0552C25.357 19.0552 25.7505 18.6615 25.7505 18.1763C25.7505 15.131 23.2728 12.6536 20.2275 12.6536C19.7421 12.6536 19.3486 13.047 19.3486 13.5325C19.3486 14.0179 19.7421 14.4114 20.2275 14.4114C22.3037 14.4114 23.9926 16.1003 23.9926 18.1763Z" fill="#C4C4C4"/>
    </symbol>
    <symbol viewBox="0 0 40 40" id="whatsapp" xmlns="http://www.w3.org/2000/svg">
        <rect x="1" y="1" width="38" height="38" stroke="#C4C4C4" stroke-width="2"/>
        <g clip-path="url(#clip0)">
            <path d="M30.7389 9.26109C27.991 6.51314 24.3382 5 20.4518 5C20.4516 5 20.4507 5 20.4504 5C18.5283 5.00023 16.6551 5.37239 14.8834 6.10641C13.1113 6.84044 11.5238 7.90176 10.1645 9.26109C7.41677 12.0088 5.90363 15.6622 5.90363 19.5482C5.90363 21.8656 6.46279 24.1686 7.52228 26.2206L5.07691 33.2065C4.90456 33.6993 5.02655 34.2348 5.39597 34.604C5.65438 34.8627 5.9945 35 6.34423 35C6.49414 35 6.64566 34.9748 6.79352 34.9231L13.7795 32.478C15.8314 33.5374 18.1344 34.0966 20.4518 34.0966C24.3378 34.0966 27.991 32.5832 30.7389 29.8355C33.4866 27.0878 35 23.4344 35 19.5484C35 15.6622 33.4869 12.0088 30.7389 9.26109ZM29.4947 28.5913C27.0793 31.0069 23.8676 32.337 20.4518 32.337C18.3621 32.337 16.2862 31.8201 14.4482 30.8419C14.115 30.6647 13.7211 30.6343 13.3675 30.7581L7.02057 32.9794L9.2421 26.6325C9.36592 26.2785 9.33525 25.8846 9.1581 25.5515C8.18009 23.7141 7.66304 21.6381 7.66304 19.5482C7.66304 16.1324 8.9933 12.9207 11.4087 10.5053C13.8239 8.09013 17.0351 6.75987 20.4507 6.75941H20.4518C23.8679 6.75941 27.0793 8.08968 29.4947 10.5053C31.9103 12.9207 33.2406 16.1321 33.2406 19.5482C33.2406 22.9642 31.9103 26.1759 29.4947 28.5913Z" fill="#C4C4C4"/>
            <path d="M25.8584 20.8477C25.1891 20.1784 24.1001 20.1784 23.4308 20.8477L22.6989 21.5796C20.8813 20.5893 19.4105 19.1185 18.4199 17.3009L19.1519 16.569C19.8214 15.8997 19.8214 14.8107 19.1519 14.1414L17.1794 12.1689C16.5101 11.4997 15.4211 11.4997 14.7519 12.1689L13.174 13.7468C12.2701 14.6507 12.225 16.2046 13.0469 18.1224C13.7606 19.7875 15.0666 21.6176 16.7244 23.2754C18.3822 24.9332 20.2123 26.2392 21.8774 26.9529C22.7886 27.3433 23.6174 27.5381 24.3335 27.5381C25.1248 27.5381 25.7785 27.3003 26.253 26.8258L27.8309 25.2477V25.2479C28.1552 24.9236 28.3337 24.4926 28.3337 24.0342C28.3337 23.5755 28.1552 23.1445 27.8309 22.8204L25.8584 20.8477ZM25.0088 25.5816C24.7508 25.8396 23.9575 25.93 22.5707 25.3358C21.1063 24.7082 19.4719 23.5345 17.9686 22.0312C16.4653 20.5279 15.2918 18.8937 14.6642 17.4293C14.0698 16.0425 14.1602 15.249 14.4182 14.991L15.9659 13.4433L17.8775 15.3552L16.9613 16.2716C16.547 16.6859 16.447 17.3142 16.7127 17.8351C17.9173 20.1972 19.8026 22.0825 22.1647 23.2871C22.6858 23.5528 23.3141 23.453 23.7284 23.0385L24.6446 22.1223L26.5564 24.0342L25.0088 25.5816Z" fill="#C4C4C4"/>
        </g>
        <defs>
            <clipPath id="clip0">
                <rect x="5" y="5" width="30" height="30" fill="white"/>
            </clipPath>
        </defs>
    </symbol>
    <symbol viewBox="0 0 12 18" fill="none" xmlns="http://www.w3.org/2000/svg" id="marker">
        <path d="M5.99996 0.666626C2.77496 0.666626 0.166626 3.27496 0.166626 6.49996C0.166626 10.875 5.99996 17.3333 5.99996 17.3333C5.99996 17.3333 11.8333 10.875 11.8333 6.49996C11.8333 3.27496 9.22496 0.666626 5.99996 0.666626ZM5.99996 8.58329C4.84996 8.58329 3.91663 7.64996 3.91663 6.49996C3.91663 5.34996 4.84996 4.41663 5.99996 4.41663C7.14996 4.41663 8.08329 5.34996 8.08329 6.49996C8.08329 7.64996 7.14996 8.58329 5.99996 8.58329Z" fill="white"/>
    </symbol>

</svg>