<svg width="50" height="50" viewBox="0 0 50 50" fill="none" xmlns="http://www.w3.org/2000/svg">
<path d="M37.2219 47.1348C36.4676 45.7457 35.6933 42.202 35.3902 39.9414H36.2304C36.4117 39.9414 36.5856 39.8694 36.7138 39.7412C36.842 39.613 36.914 39.4391 36.914 39.2578C36.9115 36.9794 36.0052 34.795 34.3941 33.184C32.7831 31.5729 30.5987 30.6666 28.3203 30.6641H28.0273V29.0039C28.0273 28.8226 27.9553 28.6487 27.8271 28.5205C27.6989 28.3923 27.525 28.3203 27.3437 28.3203H26.8554V3.71094C26.8554 3.21884 26.66 2.74689 26.312 2.39892C25.964 2.05096 25.4921 1.85547 25 1.85547C24.5079 1.85547 24.0359 2.05096 23.688 2.39892C23.34 2.74689 23.1445 3.21884 23.1445 3.71094V28.3203H22.6562C22.4749 28.3203 22.3011 28.3923 22.1729 28.5205C22.0447 28.6487 21.9726 28.8226 21.9726 29.0039V30.6641H21.6797C19.4013 30.6666 17.2169 31.5729 15.6058 33.184C13.9947 34.795 13.0885 36.9794 13.0859 39.2578C13.0859 39.4391 13.1579 39.613 13.2861 39.7412C13.4143 39.8694 13.5882 39.9414 13.7695 39.9414H14.6094C14.2871 42.3812 13.4793 45.8344 12.7761 47.1359C12.72 47.2401 12.6918 47.357 12.6944 47.4754C12.6969 47.5937 12.7301 47.7093 12.7908 47.8109C12.8514 47.9125 12.9373 47.9967 13.0402 48.0552C13.1431 48.1137 13.2594 48.1444 13.3777 48.1445H36.6199C36.7384 48.1445 36.8548 48.1137 36.9578 48.0552C37.0608 47.9966 37.1468 47.9123 37.2074 47.8105C37.268 47.7086 37.3011 47.5928 37.3034 47.4744C37.3057 47.3559 37.2772 47.2389 37.2207 47.1348H37.2219ZM24.5117 3.71094C24.5117 3.58144 24.5631 3.45724 24.6547 3.36567C24.7463 3.2741 24.8705 3.22266 25 3.22266C25.1295 3.22266 25.2537 3.2741 25.3452 3.36567C25.4368 3.45724 25.4883 3.58144 25.4883 3.71094V28.3203H24.5117V3.71094ZM23.3398 29.6875H26.6601V30.6641H23.3398V29.6875ZM21.6797 32.0312H28.3203C30.1179 32.0335 31.8504 32.7048 33.1803 33.9142C34.5102 35.1237 35.3424 36.7849 35.5148 38.5742H14.4851C14.6576 36.7849 15.4897 35.1237 16.8197 33.9142C18.1496 32.7048 19.882 32.0335 21.6797 32.0312ZM32.4121 46.7773C32.0312 45.8287 31.7528 44.8421 31.5816 43.8344C31.5475 43.6582 31.4455 43.5024 31.2976 43.4007C31.1496 43.2991 30.9677 43.2596 30.7909 43.2909C30.6142 43.3221 30.4568 43.4216 30.3528 43.5679C30.2487 43.7141 30.2063 43.8954 30.2347 44.0727C30.3971 44.992 30.6341 45.8965 30.9433 46.7773H28.75C28.3594 45.766 28.1426 44.043 27.9562 42.341C27.9465 42.2518 27.9192 42.1654 27.876 42.0867C27.8329 42.008 27.7746 41.9386 27.7046 41.8825C27.6347 41.8263 27.5543 41.7845 27.4681 41.7594C27.382 41.7343 27.2917 41.7264 27.2025 41.7361C27.1133 41.7459 27.0269 41.7732 26.9482 41.8163C26.8695 41.8595 26.8001 41.9177 26.744 41.9877C26.6878 42.0577 26.646 42.1381 26.6209 42.2242C26.5958 42.3104 26.5879 42.4006 26.5976 42.4898C26.7147 43.9363 26.9524 45.3704 27.3082 46.7773H22.2402C22.483 45.8732 22.6429 44.9488 22.7179 44.0156C22.7344 43.835 22.6785 43.6553 22.5624 43.516C22.4464 43.3767 22.2798 43.2891 22.0992 43.2727C21.9186 43.2562 21.7389 43.3121 21.5996 43.4282C21.4602 43.5442 21.3727 43.7108 21.3562 43.8914C21.2802 44.8696 21.1005 45.837 20.8203 46.7773H18.3906C18.7826 45.3542 19.0964 43.9106 19.3304 42.4531C19.3448 42.3645 19.3416 42.2739 19.3209 42.1866C19.3003 42.0992 19.2626 42.0168 19.2101 41.9439C19.1576 41.8711 19.0913 41.8093 19.0149 41.7622C18.9386 41.715 18.8536 41.6833 18.765 41.6689C18.586 41.6399 18.4029 41.6832 18.2558 41.7893C18.183 41.8418 18.1212 41.9081 18.0741 41.9845C18.0269 42.0608 17.9952 42.1458 17.9808 42.2344C17.7353 43.7677 17.3972 45.2848 16.9683 46.7773H14.4246C15.1719 44.5563 15.6961 42.2664 15.9894 39.9414H34.0105C34.3026 42.2664 34.826 44.5564 35.573 46.7773H32.4121Z" fill="#2C2C2C"/>
<path d="M28.6621 34.2773H21.3379C21.1566 34.2773 20.9827 34.3494 20.8545 34.4776C20.7263 34.6058 20.6543 34.7796 20.6543 34.9609C20.6543 35.1422 20.7263 35.3161 20.8545 35.4443C20.9827 35.5725 21.1566 35.6445 21.3379 35.6445H28.6621C28.8434 35.6445 29.0173 35.5725 29.1455 35.4443C29.2737 35.3161 29.3457 35.1422 29.3457 34.9609C29.3457 34.7796 29.2737 34.6058 29.1455 34.4776C29.0173 34.3494 28.8434 34.2773 28.6621 34.2773Z" fill="#2C2C2C"/>
</svg>
