<svg width="50" height="50" viewBox="0 0 50 50" fill="none" xmlns="http://www.w3.org/2000/svg">
<path d="M37.0964 22.1938H45.1575V23.808H37.0964V22.1938Z" fill="#2C2C2C"/>
<path d="M33.0609 27.0364H45.1575V28.6506H33.0609V27.0364Z" fill="#2C2C2C"/>
<path d="M16.1218 31.879H45.1575V33.4932H16.1218V31.879Z" fill="#2C2C2C"/>
<path d="M40.3149 36.7117H45.1575V38.3259H40.3149V36.7117Z" fill="#2C2C2C"/>
<path d="M32.2539 36.7117H37.0964V38.3259H32.2539V36.7117Z" fill="#2C2C2C"/>
<path d="M24.1828 36.7117H29.0254V38.3259H24.1828V36.7117Z" fill="#2C2C2C"/>
<path d="M16.9288 21.3868C17.5193 21.3868 18.0607 21.5542 18.5331 21.8298C19.0252 21.5443 19.5764 21.3868 20.1571 21.3868C21.9386 21.3868 23.3855 22.8337 23.3855 24.6152C23.3855 26.3967 21.9386 27.8436 20.1571 27.8436C19.5764 27.8436 19.0252 27.6861 18.5331 27.4007C18.0607 27.6763 17.5193 27.8436 16.9288 27.8436C15.1472 27.8436 13.7004 26.3967 13.7004 24.6152C13.7004 22.8337 15.1472 21.3868 16.9288 21.3868ZM19.7437 26.1703C19.8815 26.2097 20.0193 26.2294 20.1571 26.2294C21.043 26.2294 21.7713 25.501 21.7713 24.6152C21.7713 23.7294 21.043 23.001 20.1571 23.001C20.0193 23.001 19.8717 23.0306 19.7437 23.0601C19.9996 23.5227 20.1571 24.0443 20.1571 24.6152C20.1571 25.1861 19.9996 25.7077 19.7437 26.1703ZM16.9288 26.2294C17.8146 26.2294 18.5429 25.501 18.5429 24.6152C18.5429 23.7294 17.8146 23.001 16.9288 23.001C16.0429 23.001 15.3146 23.7294 15.3146 24.6152C15.3146 25.501 16.0429 26.2294 16.9288 26.2294Z" fill="#2C2C2C"/>
<path d="M1.68271 17.6564L35.5215 6.96736C35.7578 6.88862 37.6475 6.26854 38.5531 8.54218L41.3385 17.3513H47.5787C48.9173 17.3611 50 18.4438 50 19.7726V40.7472C50 42.0858 48.9173 43.1684 47.5787 43.1684H12.0863C11.2399 43.1684 10.5017 42.7354 10.0686 42.0759C10.0686 42.0759 8.97607 42.381 8.73001 42.381C7.66701 42.381 6.7418 41.7019 6.42684 40.6881L0.107895 20.6879C-0.0889549 20.0777 -0.226753 18.1682 1.68271 17.6564ZM37.992 12.1052L21.3679 17.3513H32.0865L38.9665 15.1761L37.992 12.1052ZM39.4487 16.7214L37.431 17.3611H39.6456L39.4487 16.7214ZM11.2792 40.7472H11.2891C11.2891 41.1901 11.6533 41.5542 12.0962 41.5542H47.5787C48.0216 41.5542 48.3858 41.1901 48.3858 40.7472V19.7726C48.3858 19.3297 48.0216 18.9655 47.5787 18.9655H12.0863C11.6434 18.9655 11.2792 19.3297 11.2792 19.7726V40.7472ZM7.96228 40.2058C8.09024 40.6192 8.56268 40.8653 8.97607 40.7275L9.6749 40.5109V26.1309L4.07446 27.9026L7.96228 40.2058ZM3.59217 26.3573L9.6749 24.438V21.0521L2.61776 23.2765L3.59217 26.3573ZM1.64334 20.2057L2.12563 21.7411L9.71427 19.3493C9.92096 18.2175 10.9052 17.3611 12.0863 17.3611H16.0135L37.5097 10.5698L37.0275 9.03431C36.8995 8.62092 36.4369 8.37485 36.0137 8.51265L2.17484 19.1919C1.4957 19.369 1.58429 19.999 1.64334 20.2057Z" fill="#2C2C2C"/>
</svg>
