<svg width="50" height="50" viewBox="0 0 50 50" fill="none" xmlns="http://www.w3.org/2000/svg">
<path d="M45.1431 39.3338C44.6012 36.0846 42.3229 33.4185 39.1979 32.3766L32.2584 30.0637V29.0322H30.6455V30.3596C30.1987 30.8532 28.6125 32.258 25.0004 32.258C21.3883 32.258 19.802 30.8532 19.3552 30.3596V29.0322H17.7423V30.0637L10.8036 32.3766C7.67859 33.4185 5.40036 36.0846 4.85843 39.3338L3.0802 50H46.9197L45.1431 39.3338ZM4.98504 48.3871L5.24391 46.8306L10.6044 47.5008C10.6592 47.8395 10.7286 48.133 10.8068 48.3871H4.98504ZM10.4907 45.8621L5.50923 45.2395L6.44875 39.6C6.8923 36.9411 8.75601 34.7596 11.3133 33.9072L11.3689 33.8887L12.0737 40.9355C11.6479 41.6435 10.5278 43.7129 10.4907 45.8621ZM37.4657 48.3871H12.535C12.36 48.0371 12.0971 47.2967 12.0971 45.9677C12.0971 43.8298 13.56 41.5984 13.5754 41.5758L13.7342 41.3355L12.9375 33.3661L18.2955 31.5798C19.0915 32.3782 21.1004 33.8709 25.0004 33.8709C28.9004 33.8709 30.9092 32.3782 31.7052 31.5798L37.0625 33.3661L36.2657 41.3363L36.4254 41.5766C36.4415 41.5984 37.9036 43.8169 37.9036 45.9677C37.9036 47.2967 37.6407 48.0371 37.4657 48.3871ZM38.6318 33.8887L38.6875 33.9072C41.2447 34.7596 43.1084 36.9411 43.552 39.6L44.4915 45.2395L39.51 45.8621C39.4737 43.7137 38.3536 41.6435 37.927 40.9355L38.6318 33.8887ZM39.1947 48.3871C39.2729 48.133 39.3415 47.8395 39.3971 47.5008L44.7576 46.8306L45.0157 48.3871H39.1947Z" fill="#2C2C2C"/>
<path d="M14.8729 21.729C15.2842 23.1444 16.0439 24.4419 17.1148 25.5129L20.2592 28.6581C21.0205 29.4194 22.0334 29.8387 23.1108 29.8387H26.8898C27.9673 29.8387 28.9802 29.4194 29.7415 28.6581L32.8858 25.5129C33.9568 24.4419 34.7156 23.1435 35.1277 21.729C37.1374 21.5016 38.71 19.8113 38.71 17.7419C38.71 16.4702 38.1011 15.2766 37.0971 14.5202V7.50968C37.0971 3.36936 33.7277 0 29.5874 0H20.4132C16.2729 0 12.9036 3.36936 12.9036 7.50968V14.5202C11.8995 15.2766 11.2906 16.4702 11.2906 17.7419C11.2906 19.8113 12.8632 21.5016 14.8729 21.729ZM33.8713 19.2403C33.8713 21.179 33.1156 23.0016 31.7455 24.3726L28.6011 27.5177C28.1439 27.9742 27.5366 28.2258 26.8898 28.2258H23.1108C22.464 28.2258 21.856 27.9742 21.3995 27.5177L18.2552 24.3726C16.885 23.0016 16.1294 21.179 16.1294 19.2403V16.7129C16.6221 16.8427 17.156 16.9355 17.7423 16.9355C18.9576 16.9355 19.8027 16.5887 20.6971 16.2218C21.7737 15.779 22.8874 15.3226 25.0003 15.3226C27.1132 15.3226 28.2269 15.779 29.3036 16.2218C30.1979 16.5887 31.0431 16.9355 32.2584 16.9355C32.8447 16.9355 33.3786 16.8427 33.8713 16.7129V19.2403ZM32.2584 15.3226C31.3616 15.3226 30.7237 15.0605 29.9165 14.729C28.8092 14.275 27.4318 13.7097 25.0003 13.7097C22.5689 13.7097 21.1915 14.275 20.0842 14.729C19.2769 15.0605 18.639 15.3226 17.7423 15.3226C16.4237 15.3226 15.3721 14.7524 14.7866 14.346C15.6842 13.171 18.4495 10.4839 25.0003 10.4839C31.56 10.4839 34.3245 13.179 35.2165 14.3484C34.6366 14.7548 33.5906 15.3226 32.2584 15.3226ZM37.0971 17.7419C37.0971 18.8056 36.4019 19.7016 35.4463 20.0242C35.4689 19.7653 35.4842 19.504 35.4842 19.2403V16.0734C35.6834 15.9637 35.8608 15.854 36.0197 15.7484C36.6818 16.196 37.0971 16.9379 37.0971 17.7419ZM14.5165 7.50968C14.5165 4.25806 17.1616 1.6129 20.4132 1.6129H29.5866C32.839 1.6129 35.4842 4.25806 35.4842 7.50968V12.2798C33.835 10.7589 30.6568 8.87097 25.0003 8.87097C19.3439 8.87097 16.1656 10.7589 14.5165 12.2798V7.50968ZM13.981 15.7476C14.1398 15.854 14.3173 15.9629 14.5165 16.0726V19.2395C14.5165 19.5032 14.5318 19.7645 14.5544 20.0242C13.5987 19.7016 12.9036 18.8056 12.9036 17.7419C12.9036 16.9379 13.3197 16.196 13.981 15.7476Z" fill="#2C2C2C"/>
<path d="M32.5278 39.7354C32.4141 40.9895 31.3786 41.9354 30.1189 41.9354H19.8818C18.6221 41.9354 17.5858 40.9895 17.4721 39.7354L16.9326 33.7983L15.3262 33.9443L15.8657 39.8822C16.056 41.9717 17.7826 43.5483 19.8818 43.5483H30.1181C32.2181 43.5483 33.9439 41.9717 34.1342 39.8814L34.6737 33.9443L33.0673 33.7983L32.5278 39.7354Z" fill="#2C2C2C"/>
</svg>
