<svg width="50" height="50" viewBox="0 0 50 50" fill="none" xmlns="http://www.w3.org/2000/svg">
<g clip-path="url(#clip0)">
<path d="M47.7733 23.1717L45.2683 22.8975C44.4223 21.2301 43.2875 19.7257 41.9166 18.4542C42.3135 17.7181 42.568 16.9138 42.6666 16.0834C42.7942 14.8593 42.7746 13.6244 42.6083 12.405L42.5966 12.3009C42.6053 11.194 42.1875 10.1263 41.43 9.3192C40.6225 8.60837 39.1041 8.22254 36.4616 10.4175C35.294 11.3714 34.385 12.6037 33.8183 14.0009C33.745 14.1909 33.6966 14.3809 33.6408 14.5717C33.2241 14.4375 32.8075 14.3134 32.3958 14.2017C33.8378 11.1075 33.599 7.49107 31.7627 4.61337C29.9263 1.73566 26.747 -0.00435588 23.3333 3.68709e-05C21.3949 -0.00524933 19.4974 0.557987 17.8758 1.62004C17.6269 1.78378 17.4843 2.06788 17.5016 2.3653C17.519 2.66272 17.6937 2.92829 17.96 3.06197C18.2262 3.19564 18.5436 3.17712 18.7925 3.01337C20.1419 2.13031 21.7206 1.66212 23.3333 1.6667C27.3478 1.65794 30.7973 4.51437 31.5372 8.46018C32.277 12.406 30.0967 16.318 26.3516 17.7642C24.3578 17.4131 22.318 17.4131 20.3241 17.7642C17.1112 16.5305 14.9931 13.4417 15 10C14.9943 8.68346 15.3059 7.38488 15.9083 6.2142C16.0444 5.94938 16.0288 5.63209 15.8675 5.38185C15.7062 5.1316 15.4236 4.98643 15.1262 5.00101C14.8289 5.01559 14.5619 5.18771 14.4258 5.45254C12.0557 10.0349 13.5902 15.669 17.9566 18.4167C17.3322 18.645 16.738 18.9489 16.1875 19.3217C15.8193 19.5893 15.734 20.1027 15.9957 20.475C16.2574 20.8473 16.7694 20.9408 17.1458 20.685C18.1583 20.0499 19.2882 19.6248 20.4683 19.435H20.4916C22.37 19.0861 24.2966 19.0861 26.175 19.435H26.1925C27.3745 19.6244 28.5064 20.0495 29.5208 20.685C29.7642 20.8619 30.084 20.8939 30.3576 20.7687C30.6311 20.6435 30.816 20.3805 30.8412 20.0807C30.8664 19.7809 30.728 19.4908 30.4791 19.3217C29.9323 18.9497 29.3421 18.6458 28.7216 18.4167C29.8318 17.7065 30.7914 16.7848 31.5458 15.7042C32.1558 15.8584 32.7666 16.0375 33.3791 16.2425C33.3655 16.715 33.4095 17.1874 33.51 17.6492C33.5734 17.9428 33.7899 18.1795 34.0766 18.2689C34.3633 18.3582 34.676 18.2863 34.8949 18.0807C35.1139 17.8752 35.2053 17.5677 35.1341 17.2759C34.9404 16.382 35.0226 15.4503 35.37 14.6042C35.8336 13.4718 36.574 12.4738 37.5233 11.7017C38.84 10.6067 39.8875 10.1867 40.3266 10.5725C40.7404 11.1216 40.9547 11.7953 40.9341 12.4825L40.9458 12.5892C41.096 13.6774 41.1167 14.7795 41.0075 15.8725C40.9378 17.0536 40.3259 18.1362 39.35 18.805C39.0827 18.9439 38.9112 19.2162 38.9013 19.5173C38.8915 19.8183 39.0448 20.1012 39.3025 20.2573C39.5601 20.4133 39.8819 20.4182 40.1441 20.27C40.403 20.1256 40.6457 19.9541 40.8683 19.7584C42.1553 20.9724 43.2014 22.4186 43.9516 24.0209C44.0736 24.2875 44.3268 24.4705 44.6183 24.5025L47.5841 24.8275C48.0079 24.8749 48.3276 25.2345 48.325 25.6609V31.8442C48.3276 32.2706 48.0079 32.6302 47.5841 32.6775L44.6183 33.0025C44.3259 33.0354 44.0725 33.2201 43.9516 33.4884C43.5747 34.3086 43.1142 35.0877 42.5775 35.8134C41.6092 35.3377 40.9497 34.4019 40.8275 33.33C40.7904 32.8984 40.4287 32.5671 39.9955 32.568C39.5623 32.5689 39.202 32.9016 39.1666 33.3334C39.2745 34.9056 40.1552 36.3219 41.5175 37.1142C40.3873 38.324 39.0907 39.3666 37.6666 40.2109C37.4331 40.35 37.2827 40.5947 37.2641 40.8659L36.725 48.3334H31.6066L31.2816 43.6917C31.2652 43.4546 31.1483 43.2357 30.9603 43.0902C30.7723 42.9447 30.5311 42.8864 30.2975 42.93L30.1525 42.9567C27.8556 43.4578 25.4777 43.4578 23.1808 42.9567L23.0358 42.93C22.8021 42.8864 22.5609 42.9447 22.3729 43.0902C22.1849 43.2357 22.068 43.4546 22.0516 43.6917L21.725 48.3334H16.6058L16.0725 40.8667C16.0532 40.596 15.9034 40.3516 15.6708 40.2117C15.5233 40.1225 15.3825 40.0342 15.2058 39.9225C10.1466 36.7009 7.54329 31.4067 8.57413 26.4367C9.28966 23.3384 11.0628 20.5864 13.5883 18.6542C13.9484 18.3675 14.0079 17.8431 13.7212 17.483C13.4345 17.1228 12.9101 17.0633 12.55 17.35C9.71979 19.5257 7.73657 22.6199 6.94163 26.1C6.78031 26.8911 6.69658 27.696 6.69163 28.5034C6.13829 28.54 5.59996 28.5759 5.08163 28.5934C5.11163 28.4667 5.13663 28.3375 5.15579 28.205C5.3192 27.2971 5.04532 26.3652 4.41663 25.69C3.48612 24.8485 2.09486 24.7694 1.07496 25.5C0.51887 25.8917 0.141166 26.4882 0.0249591 27.1584C-0.0773029 27.9215 0.17609 28.6893 0.712459 29.2417C1.25338 29.7459 1.9437 30.0603 2.67913 30.1375C2.25828 31.0372 1.73029 31.8828 1.10663 32.6559C0.820818 33.0176 0.882379 33.5426 1.24413 33.8284C1.60587 34.1142 2.13082 34.0526 2.41663 33.6909C3.21336 32.7041 3.87011 31.6122 4.36829 30.4459L4.44579 30.2675C5.21746 30.2675 6.01246 30.2159 6.78913 30.1642C7.31913 34.4709 10.0241 38.595 14.3566 41.355L14.4441 41.41L14.9441 48.4559C15.0135 49.3257 15.7382 49.9972 16.6108 50H21.7275C22.6017 49.9957 23.3265 49.3217 23.3941 48.45L23.6541 44.7375C24.6472 44.924 25.6563 45.0119 26.6666 45C27.6784 45.0122 28.6888 44.9243 29.6833 44.7375L29.9441 48.4559C30.0135 49.3257 30.7382 49.9972 31.6108 50H36.7275C37.6014 49.9966 38.3264 49.323 38.3941 48.4517L38.8941 41.4117C41.6101 39.7768 43.8183 37.4194 45.2725 34.6025L47.7725 34.3284C49.0407 34.1893 50.0008 33.1176 50 31.8417V25.6584C50.0008 24.3828 49.0412 23.3112 47.7733 23.1717ZM3.50746 27.9659C3.47608 28.1646 3.42585 28.36 3.35746 28.5492C2.83998 28.559 2.33366 28.3982 1.91663 28.0917C1.73589 27.9116 1.6459 27.6597 1.67163 27.4059C1.71955 27.18 1.8542 26.9819 2.04663 26.8542C2.2269 26.7301 2.44109 26.6646 2.65996 26.6667C2.87611 26.6582 3.08709 26.7341 3.24829 26.8784C3.49521 27.1828 3.59054 27.5828 3.50746 27.9659Z" fill="#2C2C2C"/>
<path d="M40.8332 24.1667C40.8332 23.7065 40.4601 23.3334 39.9998 23.3334C39.5396 23.3334 39.1665 23.7065 39.1665 24.1667C39.1665 25.0872 38.4203 25.8334 37.4998 25.8334C36.5794 25.8334 35.8332 25.0872 35.8332 24.1667C35.8332 23.7065 35.4601 23.3334 34.9998 23.3334C34.5396 23.3334 34.1665 23.7065 34.1665 24.1667C34.1665 26.0077 35.6589 27.5 37.4998 27.5C39.3408 27.5 40.8332 26.0077 40.8332 24.1667Z" fill="#2C2C2C"/>
<path d="M24.1665 16.6667V16.5908C26.0179 16.3295 27.4194 14.7847 27.4998 12.9167C27.4194 11.0487 26.0179 9.50386 24.1665 9.2425V5.12833C25.0939 5.33872 25.7722 6.13436 25.8332 7.08333C25.8332 7.54357 26.2063 7.91667 26.6665 7.91667C27.1267 7.91667 27.4998 7.54357 27.4998 7.08333C27.4194 5.21533 26.0179 3.67052 24.1665 3.40917V3.33333C24.1665 2.8731 23.7934 2.5 23.3332 2.5C22.8729 2.5 22.4998 2.8731 22.4998 3.33333V3.40917C20.6485 3.67052 19.247 5.21533 19.1665 7.08333C19.247 8.95133 20.6485 10.4961 22.4998 10.7575V14.8717C21.5725 14.6613 20.8942 13.8656 20.8332 12.9167C20.8332 12.4564 20.4601 12.0833 19.9998 12.0833C19.5396 12.0833 19.1665 12.4564 19.1665 12.9167C19.247 14.7847 20.6485 16.3295 22.4998 16.5908V16.6667C22.4998 17.1269 22.8729 17.5 23.3332 17.5C23.7934 17.5 24.1665 17.1269 24.1665 16.6667ZM25.8332 12.9167C25.7722 13.8656 25.0939 14.6613 24.1665 14.8717V10.9617C25.0939 11.1721 25.7722 11.9677 25.8332 12.9167ZM20.8332 7.08333C20.8942 6.13436 21.5725 5.33872 22.4998 5.12833V9.03833C21.5725 8.82795 20.8942 8.03231 20.8332 7.08333Z" fill="#2C2C2C"/>
</g>
<defs>
<clipPath id="clip0">
<rect width="50" height="50" fill="white"/>
</clipPath>
</defs>
</svg>
