<svg width="50" height="50" viewBox="0 0 50 50" fill="none" xmlns="http://www.w3.org/2000/svg">
<g clip-path="url(#clip0)">
<path d="M37.5 5.20825C32.8977 5.20825 29.1667 8.93921 29.1667 13.5416C29.1667 18.1439 32.8977 21.875 37.5 21.875C42.1002 21.8698 45.8282 18.1418 45.8334 13.5417C45.8334 8.93921 42.1024 5.20825 37.5 5.20825ZM37.5 19.7917C34.0483 19.7917 31.25 16.9934 31.25 13.5417C31.25 10.0899 34.0483 7.29165 37.5 7.29165C40.9504 7.29507 43.7466 10.0913 43.75 13.5417C43.75 16.9934 40.9518 19.7917 37.5 19.7917Z" fill="#2C2C2C"/>
<path d="M39.8887 10.7219L36.4585 14.1521L35.1116 12.8052L33.6387 14.2782L35.722 16.3615C35.9173 16.5569 36.1822 16.6667 36.4584 16.6667C36.7347 16.6666 36.9995 16.5568 37.1948 16.3615L41.3615 12.1948L39.8887 10.7219Z" fill="#2C2C2C"/>
<path d="M35.4165 27.0833H20.8333V29.1665H35.4165V27.0833Z" fill="#2C2C2C"/>
<path d="M22.9166 12.5H11.4582C7.43301 12.5046 4.17109 15.7665 4.1665 19.7917H6.2499C6.25332 16.9166 8.58321 14.5868 11.4582 14.5834H22.9165C24.0671 14.5834 24.9998 15.5161 24.9998 16.6667C24.9998 17.8173 24.0671 18.75 22.9165 18.75H11.4582V20.8333H22.9165C25.2177 20.8333 27.0832 18.9679 27.0832 16.6666C27.0832 14.3653 25.2178 12.5 22.9166 12.5Z" fill="#2C2C2C"/>
<path d="M1.0417 16.6667C0.466406 16.6667 0 17.1331 0 17.7083V18.75H5.2083V16.6667H1.0417Z" fill="#2C2C2C"/>
<path d="M47.9168 30.2083V44.7916C47.9168 46.5175 46.5177 47.9166 44.7918 47.9166H19.7918C18.0659 47.9166 16.6668 46.5175 16.6668 44.7916V19.7916H14.5835V44.7916C14.5869 47.6667 16.9168 49.9965 19.7918 49.9999H44.7918C47.6669 49.9965 49.9967 47.6666 50.0001 44.7916V30.2083H47.9168Z" fill="#2C2C2C"/>
<path d="M44.7918 0H23.9584C23.6821 9.76563e-05 23.4173 0.109863 23.222 0.305176L14.8887 8.63848L16.3616 10.1114L24.3897 2.0833H44.7918C46.5177 2.0833 47.9168 3.48242 47.9168 5.2083V19.7916H50.0001V5.2083C49.9967 2.3333 47.6668 0.00341797 44.7918 0Z" fill="#2C2C2C"/>
<path d="M24.6951 0.305432C24.2884 -0.101404 23.6288 -0.101501 23.222 0.305237L14.8887 8.63854C14.6933 8.83385 14.5835 9.09879 14.5835 9.37496V13.5417H16.6668V9.80621L22.9168 3.55621V7.29166C22.9168 7.86696 22.4504 8.33336 21.8751 8.33336H19.7918V10.4167H21.8751C23.601 10.4167 25.0001 9.01754 25.0001 7.29166V1.04166C25 0.765491 24.8903 0.500647 24.6951 0.305432Z" fill="#2C2C2C"/>
<path d="M6.25005 28.125H4.16675C4.17134 32.1502 7.43325 35.4121 11.4584 35.4167V33.3334C8.58335 33.3299 6.25347 31.0001 6.25005 28.125Z" fill="#2C2C2C"/>
<path d="M15.625 33.3333H11.4583V35.4165H15.625V33.3333Z" fill="#2C2C2C"/>
<path d="M0 29.1667V30.2084C0 30.7836 0.466406 31.25 1.0417 31.25H5.2084V29.1667H0Z" fill="#2C2C2C"/>
<path d="M49.0958 22.7792C47.8746 21.614 45.9534 21.614 44.7322 22.7792L30.2791 37.2323C29.8725 37.6391 29.8725 38.2984 30.2791 38.7053L33.1697 41.5959C33.365 41.7913 33.63 41.9011 33.9061 41.9011C34.1824 41.901 34.4473 41.7912 34.6426 41.5959L49.0957 27.1428C49.0962 27.1423 49.0968 27.1417 49.0973 27.1412C50.3014 25.9361 50.3008 23.9833 49.0958 22.7792ZM47.6229 25.6698L33.9062 39.3864L32.4886 37.9687L46.2053 24.2521C46.6018 23.873 47.2264 23.873 47.6229 24.2521C47.6231 24.2522 47.6233 24.2524 47.6235 24.2526C48.0146 24.6441 48.0144 25.2786 47.6229 25.6698Z" fill="#2C2C2C"/>
<path d="M33.4374 39.9281L30.4542 41.4187L31.9479 38.4323L30.0843 37.5L27.1926 43.2844C27.1203 43.4291 27.0827 43.5887 27.0828 43.7505C27.0831 44.3258 27.5497 44.7919 28.125 44.7917C28.2861 44.7931 28.4454 44.7574 28.5906 44.6875L34.375 41.7917L33.4374 39.9281Z" fill="#2C2C2C"/>
<path d="M42.5934 26.3951L41.1201 27.868L44.01 30.7587L45.4833 29.2858L42.5934 26.3951Z" fill="#2C2C2C"/>
<path d="M28.125 42.7083H20.8333V44.7915H28.125V42.7083Z" fill="#2C2C2C"/>
<path d="M27.0833 37.5H20.8333V39.5833H27.0833V37.5Z" fill="#2C2C2C"/>
<path d="M30.2083 32.2917H20.8333V34.375H30.2083V32.2917Z" fill="#2C2C2C"/>
<path d="M43.75 42.7083H34.375V44.7915H43.75V42.7083Z" fill="#2C2C2C"/>
<path d="M43.75 37.5H39.5833V39.5833H43.75V37.5Z" fill="#2C2C2C"/>
</g>
<defs>
<clipPath id="clip0">
<rect width="50" height="50" fill="white"/>
</clipPath>
</defs>
</svg>
